<?xml version="1.0" encoding="utf-8"?>
<!-- Generator: Adobe Illustrator 21.1.0, SVG Export Plug-In . SVG Version: 6.00 Build 0)  -->
<svg version="1.1" id="Layer_1" xmlns="http://www.w3.org/2000/svg" xmlns:xlink="http://www.w3.org/1999/xlink" x="0px" y="0px"
	 viewBox="0 0 30 30" style="enable-background:new 0 0 30 30;" xml:space="preserve">
<style type="text/css">
	.st0{fill:#878787;}
</style>
<g>
	<polygon class="st0" points="22,19.5 20,19.5 20,22.5 17.2,22.5 17.2,24.4 20,24.4 20,27.5 22,27.5 22,24.4 24.8,24.4 24.8,22.5 
		22,22.5 	"/>
	<path class="st0" d="M24.8,9.7c-0.1-0.2-0.5-0.5-0.7-0.7C24,8.9,24,8.9,23.9,8.8c-1.2-1.3-2.3-2.5-3.5-3.8c-0.5-0.6-1-1.1-1.6-1.7
		c-0.1-0.1-0.1-0.1-0.2-0.2c-0.4-0.4-0.5-0.5-0.6-0.6c-0.2-0.1-0.7-0.1-1-0.1c-0.2,0-0.3,0-0.5,0H9.8c-0.3,0-0.6,0-0.9,0
		c-0.8,0-1.6-0.1-2.2,0.1c-0.9,0.3-1.5,1-1.7,2v21.2c0.2,1.2,1,1.9,2.2,2h8.1v-1.4H8.9c-0.2,0-0.3,0-0.5,0c-0.9,0-1.7,0-1.9-0.5
		c-0.1-0.3-0.1-1.1-0.1-1.8c0-0.3,0-0.5,0-0.8V7c0-0.3,0-0.5,0-0.8c-0.1-1.4,0-2.3,0.9-2.4c0.5-0.1,1.1,0,1.6,0c0.3,0,0.6,0,0.8,0
		H17v2.6c0,0.3,0,0.5,0,0.8c0,0.9,0,1.7,0.2,2.2c0.2,0.6,0.7,1.1,1.3,1.4c0.8,0.3,1.8,0.2,2.8,0.2c0.7,0,1.5-0.1,2.2,0v5.3h1.4v-4
		c0-0.2,0-0.4,0-0.5C24.9,10.9,25,10.1,24.8,9.7z M18.4,4.9L19,5.5c1.2,1.3,2.5,2.6,3.6,3.9c-0.5,0-1,0-1.4,0
		c-1.6,0-2.6,0.1-2.7-0.9c-0.1-0.6-0.1-1-0.1-2C18.4,6.1,18.4,5.5,18.4,4.9z"/>
</g>
</svg>
