<?xml version="1.0" encoding="utf-8"?>
<!-- Generator: Adobe Illustrator 21.1.0, SVG Export Plug-In . SVG Version: 6.00 Build 0)  -->
<svg version="1.1" id="Layer_1" xmlns="http://www.w3.org/2000/svg" xmlns:xlink="http://www.w3.org/1999/xlink" x="0px" y="0px"
	 viewBox="0 0 30 30" style="enable-background:new 0 0 30 30;" xml:space="preserve">
<style type="text/css">
	.st0{fill:#878787;}
</style>
<g>
	<path class="st0" d="M21.2,18.1c-0.3-0.3-0.9-0.4-1.8-0.4c-0.6,0-1.4,0-2.2,0.2c-0.4-0.2-0.7-0.4-1-0.7c-0.8-0.7-1.4-1.7-1.8-2.8
		c0-0.1,0-0.2,0.1-0.3c0,0,0.4-2.5,0.3-3.3c0-0.1,0-0.1-0.1-0.2v-0.1c-0.1-0.3-0.4-0.6-0.7-0.5h-0.2l0,0c-0.4,0-0.7,0.2-0.8,0.5
		c-0.3,1,0,2.4,0.5,4.3L13.3,15c-0.4,0.9-0.8,1.7-1.2,2.5L12,17.6c-0.4,0.8-0.8,1.5-1.1,2.1l-0.3,0.2c0,0-0.6,0.3-0.8,0.4
		c-1.2,0.7-2,1.5-2.1,2.2c0,0.2,0,0.5,0.2,0.6l0.3,0.2c0.1,0.1,0.3,0.1,0.5,0.1c0.8,0,1.8-1.1,3.2-3.4c1.6-0.5,3.3-0.9,4.9-1.2
		c1.2,0.7,2.7,1.1,3.6,1.1c0.2,0,0.3,0,0.4,0c0.2,0,0.3-0.1,0.4-0.3c0.2-0.3,0.2-0.6,0.2-1C21.4,18.3,21.3,18.2,21.2,18.1L21.2,18.1
		z M8.5,22.6c0.2-0.4,0.8-1.3,1.7-2c0.1,0,0.2-0.2,0.3-0.3C9.6,21.8,9,22.4,8.5,22.6L8.5,22.6z M13.9,10.3c0.3,0,0.4,0.7,0.4,1.3
		S14.2,12.7,14,13c-0.2-0.5-0.2-1.3-0.2-1.8C13.8,11.3,13.8,10.3,13.9,10.3L13.9,10.3z M12.3,19.1c0.2-0.3,0.4-0.7,0.6-1.1
		c0.5-0.9,0.8-1.7,1-2.3c0.5,0.8,1,1.5,1.7,2.1c0.1,0.1,0.2,0.1,0.3,0.2C14.5,18.3,13.3,18.7,12.3,19.1L12.3,19.1z M20.9,19
		c-0.1,0.1-0.3,0.1-0.5,0.1c-0.5,0-1.1-0.2-2-0.6c0.3,0,0.6,0,0.9,0c0.5,0,0.6,0,1.1,0.1C21,18.7,21,18.9,20.9,19L20.9,19z"/>
	<g>
		<path class="st0" d="M23.3,27.5c-5.6,0-11.1,0-16.7,0c-1.2-0.2-1.9-0.8-2.2-1.9c0-7,0-14.1,0-21.1c0.2-0.9,0.8-1.6,1.7-1.8
			C7,2.4,8.3,2.6,9.4,2.6c2.3,0,4.9,0,7.2,0c0.5,0,1.1-0.1,1.5,0c0.2,0.1,0.7,0.6,0.9,0.9c1.9,1.9,3.6,3.6,5.4,5.5
			c0.3,0.3,0.7,0.6,0.9,0.9c0.3,0.5,0.2,1.5,0.2,2.4c0,3.4,0,6.5,0,9.8c0,1.1,0.2,2.9-0.1,3.9C25.2,26.8,24.5,27.3,23.3,27.5z
			 M9.3,3.6c-0.9,0-1.8-0.1-2.7,0c-1.4,0.2-1,1.9-1,3.3c0,5.5,0,10.7,0,16.2c0,0.8-0.2,2.1,0.1,2.6c0.3,0.8,1.4,0.6,2.7,0.6
			c4.5,0,8.8,0,13.1,0c0.7,0,1.6,0.1,2.1-0.1c0.9-0.3,0.7-1.2,0.7-2.3c0-4.6,0-8.8,0-13.3c-1.9-0.2-4.1,0.3-5.5-0.1
			c-0.6-0.2-1.1-0.7-1.3-1.3c-0.3-0.7-0.1-1.9-0.1-3c0-0.9,0-1.9,0-2.7C14.6,3.6,11.9,3.6,9.3,3.6z M18.5,4.6
			C18.5,4.5,18.5,4.6,18.5,4.6c0.1,1.3-0.2,3,0,4c0.2,1.7,3.2,0.8,5.1,1C22,7.9,20.2,6.2,18.5,4.6z"/>
	</g>
</g>
</svg>
