<?xml version="1.0" encoding="utf-8"?>
<!-- Generator: Adobe Illustrator 21.1.0, SVG Export Plug-In . SVG Version: 6.00 Build 0)  -->
<svg version="1.1" id="Layer_1" xmlns="http://www.w3.org/2000/svg" xmlns:xlink="http://www.w3.org/1999/xlink" x="0px" y="0px"
	 viewBox="0 0 28 28" style="enable-background:new 0 0 28 28;" xml:space="preserve">
<style type="text/css">
	.st0{fill:#999999;}
</style>
<title>Admin panel icon</title>
<path class="st0" d="M15.1,14l7.6-7.6c0.3-0.3,0.2-0.8-0.1-1.1c-0.3-0.3-0.7-0.3-1,0L14,12.9L6.4,5.3C6.1,5,5.6,5.1,5.3,5.4
	C5,5.7,5,6.1,5.3,6.4l7.6,7.6l-7.5,7.6c-0.3,0.3-0.3,0.8,0,1.1c0.3,0.3,0.7,0.3,1,0l7.6-7.6l7.6,7.6c0.1,0.1,0.3,0.2,0.5,0.2
	c0.2,0,0.4-0.1,0.5-0.3c0.3-0.3,0.3-0.8,0-1.1L15.1,14z"/>
</svg>
