<?xml version="1.0" encoding="utf-8"?>
<!-- Generator: Adobe Illustrator 21.1.0, SVG Export Plug-In . SVG Version: 6.00 Build 0)  -->
<svg version="1.1" id="Layer_1" xmlns="http://www.w3.org/2000/svg" xmlns:xlink="http://www.w3.org/1999/xlink" x="0px" y="0px"
	 viewBox="0 0 28 28" style="enable-background:new 0 0 28 28;" xml:space="preserve">
<style type="text/css">
	.st0{fill:#878787;}
</style>
<title>Admin panel icon</title>
<g>
	<path class="st0" d="M18.7,8.4l-6.4,6.2l-2.9-2.9c-0.2-0.2-0.5-0.2-0.7,0c-0.2,0.2-0.2,0.5,0,0.7l3.6,3.6l7.1-6.8
		c0.2-0.2,0.2-0.5,0-0.7C19.2,8.2,18.9,8.2,18.7,8.4z"/>
	<path class="st0" d="M22.3,1.5H5.6C4.8,1.5,4.1,2.2,4.1,3v18.7l5,4.8h13.2c0.8,0,1.5-0.7,1.6-1.5V3C23.9,2.2,23.2,1.5,22.3,1.5z
		 M9.1,25.5l-4-3.9h3c0.6,0,1,0.4,1,1V25.5z M23,24.7c0,0.6-0.4,1-1,1H9.9v-3.3c0-0.8-0.7-1.5-1.5-1.5c0,0,0,0,0,0H5.1V3.3
		c0-0.6,0.4-1,1-1H22c0.6,0,1,0.4,1,1V24.7z"/>
</g>
</svg>
