<?xml version="1.0" encoding="utf-8"?>
<!-- Generator: Adobe Illustrator 21.1.0, SVG Export Plug-In . SVG Version: 6.00 Build 0)  -->
<svg version="1.1" id="Layer_1" xmlns="http://www.w3.org/2000/svg" xmlns:xlink="http://www.w3.org/1999/xlink" x="0px" y="0px"
	 viewBox="0 0 28 28" style="enable-background:new 0 0 28 28;" xml:space="preserve">
<style type="text/css">
	.st0{fill:#878787;stroke:#878787;stroke-width:0.2;stroke-miterlimit:10;}
</style>
<title>Admin panel icon</title>
<path class="st0" d="M20.1,21.5c-0.3-0.6-0.6-1.2-0.9-1.8c-0.8-1.8-0.9-1.9-2.8-1.3c-0.6,0.2-1.1,0.1-1.4-0.5c-1-2-2-4-2.9-6
	c-0.6-1.4-0.5-1.5,0.8-2.4c0.1,0,0.1-0.1,0.2-0.1c0.6-0.4,0.8-1.3,0.4-1.9c-0.4-0.9-0.8-1.7-1.2-2.6c0-0.1-0.1-0.2-0.2-0.3
	c-0.4-0.6-1.2-0.7-1.8-0.3C8.5,5.1,7.5,7,7.7,9c0.1,1.9,0.5,3.8,1.3,5.5c1,3,2.8,5.7,5,7.9c1.3,1.5,3.4,2,5.3,1.2
	C20.3,23.2,20.6,22.5,20.1,21.5z M19.1,23c-1.4,0.7-3.1,0.5-4.2-0.6c-2.1-1.9-3.7-4.2-4.7-6.8c-0.9-1.9-1.6-3.9-1.8-6v0
	c-0.3-1.9,0.5-3.7,2.1-4.7c0.6-0.3,1-0.3,1.3,0.4C12.2,6,12.6,6.8,13,7.7c0,0,0.1,0.1,0.1,0.2c0.2,0.4,0,1-0.5,1.1
	c-1.7,1.3-1.9,1.3-1,3.3s2,4,3,6c0,0,0,0.1,0,0.1c0.3,0.7,1.1,0.9,1.8,0.6c1.5-0.5,1.6-0.5,2.3,1c0.3,0.6,0.6,1.3,0.9,1.8
	C19.9,22.4,19.7,22.7,19.1,23z"/>
</svg>
