<?xml version="1.0" encoding="utf-8"?>
<!-- Generator: Adobe Illustrator 21.1.0, SVG Export Plug-In . SVG Version: 6.00 Build 0)  -->
<svg version="1.1" id="Layer_1" xmlns="http://www.w3.org/2000/svg" xmlns:xlink="http://www.w3.org/1999/xlink" x="0px" y="0px"
	 viewBox="0 0 28 28" style="enable-background:new 0 0 28 28;" xml:space="preserve">
<style type="text/css">
	.st0{fill:#878787;}
</style>
<title>Admin panel icon</title>
<g>
	<path class="st0" d="M14,1.3C7,1.3,1.3,7,1.3,14S7,26.8,14,26.8C21,26.7,26.7,21,26.8,14C26.7,7,21,1.3,14,1.3z M21.7,22.2
		c-1.8-2.5-4.6-4-7.7-4c-3.1,0-5.9,1.5-7.7,4C1.7,17.9,1.5,10.8,5.7,6.3c2.1-2.3,5.2-3.6,8.3-3.6c6.2,0,11.3,5,11.3,11.2
		C25.3,17,24,20,21.7,22.2z"/>
	<circle class="st0" cx="8.3" cy="11.5" r="1.3"/>
	<circle class="st0" cx="11.8" cy="7.5" r="1.3"/>
	<circle class="st0" cx="19.5" cy="11.5" r="1.3"/>
	<path class="st0" d="M17.1,7.2C17.1,7.2,17.1,7.2,17.1,7.2c-0.5-0.2-1,0-1.3,0.4l-2,4.1c-1,0.1-1.7,0.9-1.7,1.9
		c0,1,0.9,1.9,1.9,1.9c1,0,1.9-0.9,1.9-1.9c0-0.4-0.1-0.8-0.3-1.1l2-4.1C17.7,7.9,17.5,7.4,17.1,7.2z"/>
</g>
</svg>
