<?xml version="1.0" encoding="utf-8"?>
<!-- Generator: Adobe Illustrator 21.1.0, SVG Export Plug-In . SVG Version: 6.00 Build 0)  -->
<svg version="1.1" id="Layer_1" xmlns="http://www.w3.org/2000/svg" xmlns:xlink="http://www.w3.org/1999/xlink" x="0px" y="0px"
	 viewBox="0 0 28 28" style="enable-background:new 0 0 28 28;" xml:space="preserve">
<style type="text/css">
	.st0{fill:#878787;}
</style>
<title>Admin panel icon</title>
<g>
	<path class="st0" d="M22,4.4h-7.9c-1.4,0-2.6,1.1-2.6,2.6v3.4H6c-1.4,0-2.6,1.1-2.6,2.6v5.7c0,1.4,1.1,2.6,2.6,2.6h7.1
		c0.1,0,0.1,0,0.2,0.1l2.3,1.9l0.3,0.2c0.2,0.1,0.4,0.1,0.5-0.1c0-0.1,0.1-0.1,0.1-0.2v-6.6h-1v5.3l-1.5-1.3
		c-0.2-0.2-0.5-0.3-0.8-0.3H6c-0.9,0-1.6-0.7-1.6-1.5c0,0,0,0,0,0V13c0-0.9,0.7-1.6,1.6-1.6c0,0,0,0,0,0h5.6v5.5c0,0,0,0.2,0,0.3
		c0,0.4,0.4,0.5,0.6,0.3c0.6-0.5,2.3-1.9,2.5-2.1c0.1,0,0.1-0.1,0.2-0.1h7c1.4,0,2.6-1.1,2.6-2.6V7C24.6,5.6,23.4,4.4,22,4.4z
		 M23.6,12.7c0,0.9-0.7,1.6-1.6,1.6h-7.1c-0.3,0-0.6,0.1-0.8,0.3l-1.5,1.3V7c0-0.9,0.7-1.6,1.6-1.6H22c0.9,0,1.6,0.7,1.6,1.6V12.7z"
		/>
	<ellipse transform="matrix(2.430058e-03 -1 1 2.430058e-03 5.8976 29.9973)" class="st0" cx="18" cy="12" rx="0.5" ry="0.5"/>
	<circle class="st0" cx="7.4" cy="15.9" r="0.5"/>
	<circle class="st0" cx="9.2" cy="15.9" r="0.5"/>
	<path class="st0" d="M19.3,8C19.2,8,19.1,7.9,19,7.9c-0.3-0.1-0.7-0.1-1-0.1c-0.5,0-0.9,0.2-1.2,0.5c-0.2,0.2-0.3,0.4-0.3,0.7
		c0,0.1,0,0.3,0.1,0.3c0.2,0.2,0.5,0.1,0.6-0.1c0,0,0,0,0-0.1c0-0.1,0.1-0.2,0.1-0.3c0.1-0.2,0.2-0.3,0.4-0.3c0.2-0.1,0.4-0.1,0.5,0
		c0.2,0,0.3,0.2,0.3,0.3c0.1,0.2,0,0.5-0.2,0.6c-0.1,0.1-0.2,0.2-0.4,0.3c-0.1,0.1-0.3,0.2-0.4,0.3c-0.1,0.1-0.2,0.3-0.2,0.5
		c0,0.2,0.1,0.3,0.2,0.4c0.1,0.1,0.3,0.1,0.4,0c0.1,0,0.2-0.1,0.2-0.2c0,0,0-0.1,0.1-0.1c0.1-0.2,0.2-0.3,0.3-0.4
		c0.2-0.1,0.4-0.3,0.5-0.4c0.2-0.1,0.3-0.3,0.3-0.5c0.2-0.3,0.2-0.6,0-1C19.5,8.2,19.4,8.1,19.3,8z"/>
</g>
</svg>
