<?xml version="1.0" encoding="utf-8"?>
<!-- Generator: Adobe Illustrator 21.1.0, SVG Export Plug-In . SVG Version: 6.00 Build 0)  -->
<svg version="1.1" id="Layer_1" xmlns="http://www.w3.org/2000/svg" xmlns:xlink="http://www.w3.org/1999/xlink" x="0px" y="0px"
	 viewBox="0 0 28 28" style="enable-background:new 0 0 28 28;" xml:space="preserve">
<style type="text/css">
	.st0{fill:#878787;}
</style>
<title>Admin panel icon</title>
<g>
	<path class="st0" d="M24.2,5.8H5.8c-0.9,0-1.7,0.8-1.7,1.7v15.3c0,0.9,0.7,1.7,1.7,1.7c0,0,0,0,0,0h18.5c0.9,0,1.7-0.7,1.7-1.7
		c0,0,0,0,0,0V7.5C26,6.6,25.2,5.8,24.2,5.8z M24.7,22.8c0,0.2-0.2,0.4-0.4,0.4H5.8c-0.2,0-0.4-0.2-0.4-0.4V7.5
		c0-0.2,0.2-0.4,0.4-0.4h18.5c0.2,0,0.4,0.2,0.4,0.4V22.8z"/>
	<path class="st0" d="M15.4,16.8l-3.1-3.2l-5.9,7.7h17.3L20,10.6L15.4,16.8z M8.9,20.2v-0.1l3.5-4.5l3.1,3.2l4.1-5.4l2.3,6.8H8.9z"
		/>
	<path class="st0" d="M15.2,14.3c1.2,0,2.2-1,2.2-2.2s-1-2.2-2.2-2.2s-2.2,1-2.2,2.2C13.1,13.3,14,14.3,15.2,14.3z M15.2,11.2
		c0.5,0,0.9,0.4,0.9,0.9c0,0.5-0.4,0.9-0.9,0.9s-0.9-0.4-0.9-0.9C14.4,11.6,14.8,11.2,15.2,11.2z"/>
	<path class="st0" d="M25.2,3.5H3.3C2.6,3.5,2,4.1,1.9,4.9v16.3h1.2V4.9c0-0.1,0.1-0.2,0.2-0.2h21.8V3.5z"/>
</g>
</svg>
