<?xml version="1.0" encoding="utf-8"?>
<!-- Generator: Adobe Illustrator 21.1.0, SVG Export Plug-In . SVG Version: 6.00 Build 0)  -->
<svg version="1.1" id="Layer_1" xmlns="http://www.w3.org/2000/svg" xmlns:xlink="http://www.w3.org/1999/xlink" x="0px" y="0px"
	 viewBox="0 0 28 28" style="enable-background:new 0 0 28 28;" xml:space="preserve">
<style type="text/css">
	.st0{fill:#878787;}
</style>
<title>Admin panel icon</title>
<g>
	<path class="st0" d="M26,17.6c-1.2-1-2.4-1.8-3.8-2.5V13c0.4-0.3,0.6-0.8,0.6-1.3V8.9c0-1.7-1.3-3-3-3h-0.6c-1.7,0-3,1.3-3,3v2.7
		c0,0.5,0.3,1,0.7,1.3v1.9c-0.1,0.3,0.1,0.5,0.4,0.6c0.3,0.1,0.5-0.1,0.6-0.4c0-0.1,0-0.1,0-0.2v-2.2c0-0.2-0.1-0.3-0.2-0.4
		c-0.2-0.1-0.3-0.4-0.3-0.6V8.9c0-1.1,0.9-2,2-2h0.6c1.1,0,2,0.9,2,2v2.7c0,0.2-0.1,0.5-0.3,0.6c-0.1,0.1-0.2,0.2-0.2,0.4v2.6
		c0,0.2,0.1,0.5,0.3,0.6c1.3,0.7,2.6,1.5,3.8,2.5c0.2,0.2,0.3,0.4,0.3,0.6v1.9c-0.1,0.3,0.1,0.5,0.4,0.6c0.3,0.1,0.5-0.1,0.6-0.4
		c0-0.1,0-0.1,0-0.2V19C26.7,18.4,26.4,17.9,26,17.6z"/>
	<path class="st0" d="M13.1,13.8v-2.8c0.4-0.4,0.7-0.9,0.7-1.5V6.2c0-1.9-1.6-3.5-3.5-3.5H9.5C7.6,2.7,6,4.3,6,6.2v3.4
		c0,0.6,0.2,1.1,0.7,1.5v2.8c-1.7,0.8-3.2,1.8-4.7,3c-0.5,0.4-0.8,1-0.8,1.6v2.3c0,0.3,0.2,0.5,0.5,0.5c0,0,0,0,0,0
		c0.3,0,0.5-0.2,0.5-0.5c0,0,0,0,0,0v-2.3c0-0.3,0.2-0.7,0.4-0.9c1.4-1.2,3-2.2,4.6-3h0.1c0.2-0.1,0.4-0.3,0.4-0.6v-3.2
		c0-0.2-0.1-0.3-0.2-0.4C7.2,10.2,7,9.9,7,9.6V6.2c0-1.4,1.1-2.5,2.5-2.5h0.7c1.4,0,2.5,1.1,2.5,2.5v3.4c0,0.4-0.2,0.7-0.5,0.9
		c-0.1,0.1-0.2,0.2-0.2,0.4V14c0,0.2,0.2,0.5,0.4,0.6c1.7,0.8,3.2,1.8,4.7,3c0.3,0.2,0.4,0.5,0.4,0.9v2.3c-0.1,0.3,0.1,0.5,0.4,0.6
		c0.3,0.1,0.5-0.1,0.6-0.4c0-0.1,0-0.1,0-0.2v-2.3c0-0.6-0.3-1.2-0.8-1.7C16.3,15.7,14.8,14.7,13.1,13.8z"/>
	<path class="st0" d="M11,14.5C11,14.5,11,14.5,11,14.5c-0.3,0-0.5,0.2-0.5,0.5c0,0,0,0,0,0c0,0.2-0.1,0.4-0.3,0.5
		c-0.1,0.1-0.2,0.1-0.4,0.1c-0.3,0-0.6-0.3-0.6-0.6c0,0,0,0,0,0c0.1-0.3-0.1-0.5-0.4-0.6c-0.3-0.1-0.5,0.1-0.6,0.4
		c0,0.1,0,0.1,0,0.2c0,0.4,0.1,0.7,0.3,1l-0.3,7.8c0,0.1,0.1,0.3,0.2,0.4l1.1,1c0.1,0.1,0.2,0.1,0.4,0.2c0.1,0,0.3,0,0.4-0.1l1.1-1
		c0.1-0.1,0.2-0.2,0.2-0.4l-0.4-7.7c0.3-0.3,0.4-0.7,0.4-1.1C11.5,14.7,11.3,14.5,11,14.5z M9.9,24l-0.6-0.5l0.3-7
		c0.2,0,0.3,0,0.5,0l0.3,7L9.9,24z"/>
</g>
</svg>
