<?xml version="1.0" encoding="utf-8"?>
<!-- Generator: Adobe Illustrator 21.1.0, SVG Export Plug-In . SVG Version: 6.00 Build 0)  -->
<svg version="1.1" id="Layer_1" xmlns="http://www.w3.org/2000/svg" xmlns:xlink="http://www.w3.org/1999/xlink" x="0px" y="0px"
	 viewBox="0 0 28 28" style="enable-background:new 0 0 28 28;" xml:space="preserve">
<style type="text/css">
	.st0{fill:#878787;}
</style>
<title>Admin panel icon</title>
<g>
	<path class="st0" d="M24.7,1.6c-0.1,0-0.2,0-0.3,0H3.8C2.9,1.5,2.2,2.2,2.2,3v16.5c0,0.8,0.6,1.5,1.4,1.5c0,0,0,0,0.1,0h10.4
		l6.4,5.4L20.4,21h3.9c0.8,0,1.5-0.6,1.5-1.4c0,0,0,0,0-0.1V3C25.9,2.3,25.4,1.7,24.7,1.6z M24.9,19.5L24.9,19.5
		c-0.1,0.2-0.3,0.4-0.5,0.4h-5.1v4l-4.8-4H3.8c-0.2,0-0.4-0.2-0.4-0.4V3c0-0.2,0.2-0.4,0.4-0.4h20.7c0.2,0,0.4,0.2,0.4,0.4V19.5z"/>
	<polygon class="st0" points="9.1,12.8 11.2,12.8 11.2,12 8.2,12 8.2,15.8 9.1,15.8 9.1,14.5 10.9,14.5 10.9,13.8 9.1,13.8 	"/>
	<path class="st0" d="M12.8,12l-1.7,3.8H12l0.3-0.8h1.8l0.3,0.8h0.9L13.7,12H12.8z M12.6,14.3l0.6-1.5l0.6,1.5H12.6z"/>
	<path class="st0" d="M18.9,16.2c-0.1,0-0.2,0-0.3-0.1c-0.1,0-0.2-0.1-0.3-0.2c0.4-0.1,0.8-0.4,1-0.7c0.3-0.3,0.4-0.8,0.4-1.2
		c0-0.4-0.1-0.7-0.3-1c-0.2-0.3-0.5-0.5-0.8-0.7C18.3,12,18,11.9,17.7,12c-0.4,0-0.8,0.1-1.1,0.3c-0.3,0.2-0.6,0.4-0.8,0.7
		c-0.2,0.3-0.3,0.6-0.3,1c0,0.3,0.1,0.6,0.2,0.9c0.2,0.3,0.4,0.5,0.6,0.7c0.3,0.2,0.6,0.3,0.9,0.3c0.3,0.3,0.6,0.5,0.8,0.7
		c0.2,0.1,0.5,0.2,0.8,0.2c0.2,0,0.4,0,0.6-0.1c0.2-0.1,0.4-0.2,0.5-0.4l-0.4-0.5C19.4,16,19.2,16.2,18.9,16.2z M17.7,15.2
		c-0.2,0-0.4-0.1-0.6-0.2c-0.2-0.1-0.3-0.3-0.4-0.4c-0.1-0.2-0.2-0.4-0.2-0.6c0-0.2,0.1-0.4,0.2-0.6c0.1-0.2,0.2-0.3,0.4-0.4
		c0.2-0.1,0.4-0.2,0.6-0.2c0.2,0,0.4,0.1,0.6,0.2c0.2,0.1,0.3,0.3,0.4,0.4c0.1,0.2,0.2,0.4,0.2,0.6c0,0.2-0.1,0.4-0.2,0.6
		c-0.1,0.2-0.2,0.3-0.4,0.4C18.1,15.1,17.9,15.2,17.7,15.2z"/>
	<polygon class="st0" points="9.2,7.8 11.5,10.2 12.3,10.2 12.3,6.2 11.3,6.2 11.3,8.6 9.1,6.2 8.2,6.2 8.2,10.2 9.2,10.2 	"/>
	<path class="st0" d="M17.4,10.2l-1-1.3c0.3-0.1,0.5-0.3,0.7-0.5c0.2-0.2,0.2-0.5,0.2-0.8s-0.1-0.5-0.2-0.8
		c-0.2-0.2-0.4-0.4-0.7-0.5c-0.3-0.1-0.6-0.2-1-0.2h-2v4h1V9.1h0.9h0.1l0.9,1.1H17.4z M16,8.2c-0.2,0.1-0.4,0.2-0.7,0.2h-0.9V7h0.9
		C15.6,7,15.8,7,16,7.1s0.2,0.3,0.2,0.5C16.3,7.9,16.2,8,16,8.2z"/>
	<rect x="18.1" y="6.2" class="st0" width="1" height="4"/>
</g>
</svg>
