<?xml version="1.0" encoding="utf-8"?>
<!-- Generator: Adobe Illustrator 21.1.0, SVG Export Plug-In . SVG Version: 6.00 Build 0)  -->
<svg version="1.1" id="Layer_1" xmlns="http://www.w3.org/2000/svg" xmlns:xlink="http://www.w3.org/1999/xlink" x="0px" y="0px"
	 viewBox="0 0 28 28" style="enable-background:new 0 0 28 28;" xml:space="preserve">
<style type="text/css">
	.st0{fill:#878787;}
</style>
<g>
	<title>Admin panel icon</title>
	<g>
		<path class="st0" d="M20,11.9c-0.3,0-0.5,0.2-0.5,0.5c0.2,3-2.2,5.6-5.2,5.8c-3,0.1-5.6-2.2-5.8-5.2c-0.2-3,2.2-5.6,5.2-5.8
			c0.7,0,1.4,0.1,2,0.3l-1.2,0.7c-0.2,0.1-0.3,0.4-0.2,0.7c0.1,0.2,0.3,0.2,0.4,0.2c0.1,0,0.2,0,0.3-0.1l2.6-1.5L16.1,5
			c-0.1-0.2-0.4-0.3-0.7-0.2c-0.2,0.1-0.3,0.4-0.2,0.7l0.5,0.9c-0.7-0.2-1.4-0.3-2-0.2C10.1,6.4,7.3,9.4,7.5,13
			c0.1,1.7,0.8,3.3,2.1,4.5c1.2,1.1,2.7,1.7,4.4,1.7c0.1,0,0.2,0,0.3,0c3.6-0.2,6.3-3.2,6.2-6.8C20.5,12.1,20.3,11.8,20,11.9z"/>
		<path class="st0" d="M22.3,1.5H5.6C4.8,1.5,4.1,2.2,4.1,3v18.7l5,4.8h13.2c0.8,0,1.5-0.7,1.6-1.5V3C23.9,2.2,23.2,1.5,22.3,1.5z
			 M9.1,25.5l-4-3.9h3c0.6,0,1,0.4,1,1V25.5z M23,24.7c0,0.6-0.4,1-1,1H9.9v-3.3c0-0.8-0.7-1.5-1.5-1.5c0,0,0,0,0,0H5.1V3.3
			c0-0.6,0.4-1,1-1H22c0.6,0,1,0.4,1,1V24.7z"/>
	</g>
</g>
</svg>
