<?xml version="1.0" encoding="utf-8"?>
<!-- Generator: Adobe Illustrator 21.1.0, SVG Export Plug-In . SVG Version: 6.00 Build 0)  -->
<svg version="1.1" id="Layer_1" xmlns="http://www.w3.org/2000/svg" xmlns:xlink="http://www.w3.org/1999/xlink" x="0px" y="0px"
	 viewBox="0 0 28 28" style="enable-background:new 0 0 28 28;" xml:space="preserve">
<style type="text/css">
	.st0{fill:#878787;}
</style>
<title>Admin panel icon</title>
<g>
	<path class="st0" d="M22.9,1H5.1C4.3,1,3.6,1.7,3.6,2.5v23c0,0.8,0.7,1.5,1.5,1.5h17.7c0.8,0,1.5-0.7,1.5-1.5v-23
		C24.4,1.7,23.7,1,22.9,1z M23.4,25.5c0,0.3-0.2,0.5-0.5,0.5H5.1c-0.3,0-0.5-0.2-0.5-0.5v-23C4.6,2.2,4.9,2,5.1,2h17.7
		c0.3,0,0.5,0.2,0.5,0.5V25.5z"/>
	<path class="st0" d="M8.8,9.5l5.3-4.1l5.2,4.1c0.1,0.1,0.2,0.1,0.3,0.1c0.1,0,0.3-0.1,0.4-0.2c0.2-0.2,0.1-0.5-0.1-0.6l-5.8-4.6
		L8.3,8.8C8.1,8.9,8,9.2,8.2,9.4C8.4,9.6,8.6,9.6,8.8,9.5z"/>
	<path class="st0" d="M18.8,14.5V9.9c0-0.2-0.2-0.5-0.5-0.5s-0.5,0.2-0.5,0.5v3.7h-2.1V9.8h-3.4v3.8h-2.1V9.9c0-0.2-0.2-0.5-0.5-0.5
		S9.4,9.7,9.4,9.9v4.6h3.9v-3.8h1.6v3.8H18.8z"/>
	<path class="st0" d="M21.4,19.7H6.6c-0.2,0-0.4,0.2-0.4,0.4s0.2,0.4,0.4,0.4h14.8c0.2,0,0.4-0.2,0.4-0.4S21.6,19.7,21.4,19.7z"/>
	<path class="st0" d="M21.4,17.8H6.6c-0.2,0-0.4,0.2-0.4,0.4s0.2,0.4,0.4,0.4h14.8c0.2,0,0.4-0.2,0.4-0.4S21.6,17.8,21.4,17.8z"/>
	<path class="st0" d="M21.4,21.8H6.6c-0.2,0-0.4,0.2-0.4,0.4s0.2,0.4,0.4,0.4h14.8c0.2,0,0.4-0.2,0.4-0.4S21.6,21.8,21.4,21.8z"/>
</g>
</svg>
