<?xml version="1.0" encoding="utf-8"?>
<!-- Generator: Adobe Illustrator 21.1.0, SVG Export Plug-In . SVG Version: 6.00 Build 0)  -->
<svg version="1.1" id="Layer_1" xmlns="http://www.w3.org/2000/svg" xmlns:xlink="http://www.w3.org/1999/xlink" x="0px" y="0px"
	 viewBox="0 0 28 28" style="enable-background:new 0 0 28 28;" xml:space="preserve">
<style type="text/css">
	.st0{fill:#878787;}
</style>
<title>Admin panel icon</title>
<g>
	<path class="st0" d="M25.4,8.6c-0.5-1.2-1.2-2.2-2.1-3.1C22.9,5,22.4,4.6,22,4.3c-0.3-0.3-0.6-0.5-1-0.7c-0.2-0.1-0.5,0-0.6,0.2
		c-0.2,0.2-0.1,0.5,0.1,0.7C20.7,4.6,21,4.8,21.3,5c0.4,0.4,0.9,0.7,1.3,1.2C23.4,7,24,8,24.5,9.1c0.6,1.3,1,2.7,1,4.1
		c0,0.1,0,0.2,0,0.2c0,1.2-0.2,2.3-0.6,3.5c-0.1,0.3,0.1,0.5,0.3,0.6h0.2c0.2,0,0.4-0.1,0.5-0.3c0.4-1.2,0.6-2.5,0.7-3.8
		c0-0.1,0-0.2,0-0.3C26.4,11.6,26.1,10,25.4,8.6z"/>
	<path class="st0" d="M19.9,6.9c-0.3-0.3-0.6-0.5-0.9-0.7c0,0-0.1,0-0.1-0.1c-0.2-0.1-0.6,0-0.7,0.2c-0.1,0.2,0,0.6,0.2,0.7
		c0.3,0.2,0.5,0.4,0.8,0.6c1.8,1.5,2.9,3.7,2.8,6.1c0,0.8-0.2,1.6-0.4,2.4c-0.1,0.3,0.1,0.6,0.4,0.6h0.1c0.2,0,0.4-0.1,0.5-0.4
		c0.2-0.9,0.4-1.7,0.4-2.6v-0.1C23.1,11,21.9,8.6,19.9,6.9z"/>
	<path class="st0" d="M16.9,9C16.8,9,16.8,9,16.9,9c-0.3-0.2-0.6-0.1-0.8,0.1c-0.2,0.2-0.1,0.5,0.1,0.7c0.5,0.4,0.9,0.9,1.3,1.5
		c0.7,1.2,0.9,2.6,0.7,4c0,0,0,0,0,0c-0.1,0.3,0.1,0.6,0.4,0.6h0.1c0.2,0,0.5-0.2,0.5-0.4c0.3-1.6,0-3.3-0.8-4.7
		C18,10.1,17.5,9.5,16.9,9z"/>
	<path class="st0" d="M15.1,16.4c0.8-0.8,1-1.9,0.6-2.9c-0.4-1-1.2-1.7-2.3-1.9l-0.6-1.8c-0.1-0.5-0.5-0.9-0.9-1
		c-0.5,0-1.1,0.2-1.4,0.6c-1.2,1.5-2.6,2.9-4.1,4.2l-4,1.4c-0.7,0.2-1.1,1-0.8,1.7c0,0,0,0,0,0l1.1,3.2c0.2,0.5,0.7,0.9,1.3,0.9
		c0.1,0,0.1,0,0.2,0c0.4,1.2,1,2.3,1.8,3.3c0.2,0.2,0.5,0.3,0.8,0.3c0.1,0,0.2,0,0.3-0.1L8.3,24h0.1c0.5-0.4,0.6-1,0.3-1.5
		c-0.1-0.1-0.2-0.3-0.3-0.4c-0.4-0.7-0.8-1.5-1.1-2.3l1-0.3c1.9,0.1,3.7,0.3,5.5,0.8l0.3,0.1c0.1,0,0.3,0.1,0.5,0
		c0.4,0,0.7-0.1,1-0.4c0.3-0.4,0.4-0.9,0.2-1.3L15.1,16.4z M7.6,22.5c0.1,0.1,0.2,0.3,0.2,0.4c0,0.1,0.1,0.1,0.1,0.2l-1.2,0.4
		c-0.7-0.9-1.2-1.9-1.6-3L6.4,20C6.7,20.9,7.1,21.7,7.6,22.5z M4.1,19.8c-0.1,0-0.2,0-0.2,0c-0.1,0-0.1-0.1-0.2-0.2l-1.1-3.3
		c-0.1-0.2,0-0.3,0.2-0.4l3.6-1.2l1.3,3.8L4.1,19.8z M14.9,19.2L14.9,19.2c-0.1,0.1-0.2,0.1-0.4,0l-0.3-0.1
		c-1.8-0.4-3.6-0.7-5.4-0.8l-1.4-4.1c1.5-1.2,2.8-2.6,4-4.1c0.1-0.1,0.3-0.2,0.5-0.3c0,0,0.1,0,0.2,0.3l3.1,8.8
		C14.9,19,14.9,19.1,14.9,19.2z M14.8,15.3l-0.8-2.4c0.4,0.2,0.7,0.6,0.8,1v0C15,14.3,15,14.8,14.8,15.3z"/>
</g>
</svg>
