<?xml version="1.0" encoding="utf-8"?>
<!-- Generator: Adobe Illustrator 21.1.0, SVG Export Plug-In . SVG Version: 6.00 Build 0)  -->
<svg version="1.1" id="Layer_1" xmlns="http://www.w3.org/2000/svg" xmlns:xlink="http://www.w3.org/1999/xlink" x="0px" y="0px"
	 viewBox="0 0 28 28" style="enable-background:new 0 0 28 28;" xml:space="preserve">
<style type="text/css">
	.st0{fill:#878787;}
</style>
<title>Admin panel icon</title>
<g>
	<path class="st0" d="M10.6,13.5L10.6,13.5l-7.3,0l3.1-3.1c0.2-0.2,0.3-0.6,0.1-0.8C6.3,9.4,5.9,9.3,5.7,9.5c0,0-0.1,0.1-0.1,0.1
		L1.2,14l4.4,4.4c0.2,0.2,0.5,0.3,0.7,0.1c0,0,0.1-0.1,0.1-0.1c0.2-0.2,0.2-0.6,0-0.8l-3.1-3.1h7.3c0.3,0,0.5-0.2,0.5-0.5
		S10.9,13.5,10.6,13.5z"/>
	<path class="st0" d="M22.4,9.6c-0.2-0.2-0.6-0.1-0.8,0.1c-0.2,0.2-0.2,0.5,0,0.7l3.1,3.1H18c-0.3,0-0.5,0.2-0.5,0.5
		c0,0.3,0.2,0.5,0.5,0.5h6.7l-3.1,3.1c-0.2,0.2-0.2,0.6,0,0.8c0.2,0.2,0.5,0.3,0.7,0.1c0,0,0.1-0.1,0.1-0.1l4.4-4.4L22.4,9.6z"/>
</g>
</svg>
