<?xml version="1.0" encoding="utf-8"?>
<!-- Generator: Adobe Illustrator 21.1.0, SVG Export Plug-In . SVG Version: 6.00 Build 0)  -->
<svg version="1.1" id="Layer_1" xmlns="http://www.w3.org/2000/svg" xmlns:xlink="http://www.w3.org/1999/xlink" x="0px" y="0px"
	 viewBox="0 0 28 28" style="enable-background:new 0 0 28 28;" xml:space="preserve">
<style type="text/css">
	.st0{fill:#878787;}
</style>
<title>Admin panel icon</title>
<g>
	<path class="st0" d="M27,13.5C27,7.2,21.2,2,14,2S1,7.2,1,13.5s5.8,11.4,13,11.4c1.8,0,3.5-0.3,5.1-0.9l6.5,2.3l-1.2-6
		C26.1,18.4,27,16,27,13.5z M19.2,22.8l-0.3,0.1c-1.6,0.6-3.3,0.9-4.9,0.9c-6.6,0-12-4.6-12-10.3S7.4,3.1,14,3.1s12,4.6,12,10.3
		c0,2.3-0.9,4.6-2.5,6.3l-0.3,0.3l1.1,4.5L19.2,22.8z"/>
	<path class="st0" d="M20.6,9.1h-13C7.3,9.1,7,9.4,7,9.7s0.2,0.5,0.5,0.5h13c0.3,0,0.5-0.2,0.5-0.5S20.9,9.1,20.6,9.1z"/>
	<path class="st0" d="M20.6,13.1h-13c-0.3,0-0.5,0.2-0.5,0.5c0,0.3,0.2,0.6,0.5,0.6h13c0.3,0,0.5-0.2,0.5-0.6
		C21.1,13.4,20.9,13.1,20.6,13.1z"/>
	<path class="st0" d="M13.7,17.1H7.5c-0.3,0-0.6,0.2-0.6,0.5s0.2,0.5,0.6,0.5h6.2c0.3,0,0.5-0.2,0.5-0.5S14,17.1,13.7,17.1z"/>
</g>
</svg>
