<?xml version="1.0" encoding="utf-8"?>
<!-- Generator: Adobe Illustrator 21.1.0, SVG Export Plug-In . SVG Version: 6.00 Build 0)  -->
<svg version="1.1" id="Layer_1" xmlns="http://www.w3.org/2000/svg" xmlns:xlink="http://www.w3.org/1999/xlink" x="0px" y="0px"
	 viewBox="0 0 28 28" style="enable-background:new 0 0 28 28;" xml:space="preserve">
<style type="text/css">
	.st0{fill:#878787;}
</style>
<title>Admin panel icon</title>
<g>
	<path class="st0" d="M22.3,1.5H5.6C4.8,1.5,4.1,2.2,4.1,3v18.7l5,4.8h13.2c0.8,0,1.5-0.7,1.6-1.5V3C23.9,2.2,23.2,1.5,22.3,1.5z
		 M9.1,25.5l-4-3.9h3c0.6,0,1,0.4,1,1V25.5z M23,24.7c0,0.6-0.4,1-1,1H9.9v-3.3c0-0.8-0.7-1.5-1.5-1.5c0,0,0,0,0,0H5.1V3.3
		c0-0.6,0.4-1,1-1H22c0.6,0,1,0.4,1,1V24.7z"/>
	<path class="st0" d="M6.9,5.6C6.9,5.6,6.9,5.6,6.9,5.6l6,0c0.2,0,0.4-0.2,0.4-0.4c0-0.2-0.2-0.4-0.4-0.4h-6c-0.2,0-0.4,0.1-0.4,0.4
		c0,0,0,0,0,0C6.5,5.4,6.7,5.6,6.9,5.6z"/>
	<path class="st0" d="M6.9,7.9C6.9,7.9,6.9,7.9,6.9,7.9l6,0c0.2,0,0.4-0.2,0.4-0.4c0-0.2-0.2-0.4-0.4-0.4h-6C6.7,7,6.5,7.2,6.5,7.4
		c0,0,0,0,0,0C6.5,7.7,6.7,7.9,6.9,7.9z"/>
	<path class="st0" d="M6.9,10.2C6.9,10.2,6.9,10.2,6.9,10.2l6,0c0.2,0,0.4-0.2,0.4-0.4s-0.2-0.4-0.4-0.4h-6c-0.2,0-0.4,0.1-0.4,0.4
		c0,0,0,0,0,0C6.5,10,6.7,10.2,6.9,10.2z"/>
	<path class="st0" d="M21.3,16.7H6.5c-0.2,0-0.4,0.2-0.4,0.4s0.2,0.4,0.4,0.4h14.8c0.2,0,0.4-0.2,0.4-0.4S21.6,16.7,21.3,16.7z"/>
	<path class="st0" d="M21.3,14.8H6.5c-0.2,0-0.4,0.2-0.4,0.4s0.2,0.4,0.4,0.4h14.8c0.2,0,0.4-0.2,0.4-0.4S21.6,14.8,21.3,14.8z"/>
	<path class="st0" d="M21.3,18.8H6.5c-0.2,0-0.4,0.2-0.4,0.4s0.2,0.4,0.4,0.4h14.8c0.2,0,0.4-0.2,0.4-0.4S21.6,18.8,21.3,18.8z"/>
</g>
</svg>
