<?xml version="1.0" encoding="utf-8"?>
<!-- Generator: Adobe Illustrator 21.1.0, SVG Export Plug-In . SVG Version: 6.00 Build 0)  -->
<svg version="1.1" id="Layer_1" xmlns="http://www.w3.org/2000/svg" xmlns:xlink="http://www.w3.org/1999/xlink" x="0px" y="0px"
	 viewBox="0 0 28 28" style="enable-background:new 0 0 28 28;" xml:space="preserve">
<style type="text/css">
	.st0{fill:#878787;}
</style>
<g>
	<title>Admin panel icon</title>
	<g>
		<path class="st0" d="M15.8,7.7c-0.2-0.2-0.5-0.2-0.7,0c-0.2,0.2-0.2,0.5,0,0.7l3.1,3.3H8.8c-0.3,0-0.5,0.2-0.5,0.5
			s0.2,0.5,0.5,0.5H18l-3.2,3c-0.2,0.2-0.2,0.5,0,0.7c0.1,0.1,0.2,0.2,0.4,0.2c0.1,0,0.2,0,0.3-0.1l4.1-3.8c0,0,0.1-0.1,0.1-0.1
			l0.3-0.3L15.8,7.7z"/>
		<path class="st0" d="M22.3,1.5H5.6C4.8,1.5,4.1,2.2,4.1,3v18.7l5,4.8h13.2c0.8,0,1.5-0.7,1.6-1.5V3C23.9,2.2,23.2,1.5,22.3,1.5z
			 M9.1,25.5l-4-3.9h3c0.6,0,1,0.4,1,1V25.5z M23,24.7c0,0.6-0.4,1-1,1H9.9v-3.3c0-0.8-0.7-1.5-1.5-1.5c0,0,0,0,0,0H5.1V3.3
			c0-0.6,0.4-1,1-1H22c0.6,0,1,0.4,1,1V24.7z"/>
	</g>
</g>
</svg>
