<?xml version="1.0" encoding="utf-8"?>
<!-- Generator: Adobe Illustrator 21.1.0, SVG Export Plug-In . SVG Version: 6.00 Build 0)  -->
<svg version="1.1" id="Layer_1" xmlns="http://www.w3.org/2000/svg" xmlns:xlink="http://www.w3.org/1999/xlink" x="0px" y="0px"
	 viewBox="0 0 28 28" style="enable-background:new 0 0 28 28;" xml:space="preserve">
<style type="text/css">
	.st0{fill:#878787;}
</style>
<title>Admin panel icon</title>
<g>
	<path class="st0" d="M25.1,22.6v-8.4c0-0.3-0.2-0.5-0.5-0.5c-0.3,0-0.5,0.2-0.5,0.5v8.4c0,0.3-0.2,0.5-0.5,0.5H4.3
		c-0.3,0-0.5-0.2-0.5-0.5v-8.4c0-0.3-0.2-0.5-0.5-0.5c-0.3,0-0.5,0.2-0.5,0.5v8.4c0,0.8,0.6,1.5,1.4,1.5c0,0,0,0,0,0h19.4
		C24.5,24.1,25.2,23.4,25.1,22.6C25.1,22.6,25.1,22.6,25.1,22.6z"/>
	<path class="st0" d="M9.2,10.1L9.2,10.1l4.3-4.3v12.7c0,0.3,0.2,0.5,0.5,0.5s0.5-0.2,0.5-0.5V5.8l4.3,4.3c0.2,0.2,0.5,0.2,0.7,0
		s0.2-0.5,0-0.7l-5.2-5.1L14,3.9l-0.3,0.4L8.5,9.4c-0.2,0.2-0.2,0.5,0,0.7S9,10.3,9.2,10.1z"/>
</g>
</svg>
